<svg width="96" height="96" viewBox="0 0 96 96" fill="none" xmlns="http://www.w3.org/2000/svg">
<path d="M86 86H10" stroke="white" stroke-width="5" stroke-linecap="round" stroke-linejoin="round"/>
<path fill-rule="evenodd" clip-rule="evenodd" d="M31 10L65 10C73.2843 10 80 16.7157 80 25V86H16V25C16 16.7157 22.7157 10 31 10ZM28 21C25.7909 21 24 22.7909 24 25C24 27.2091 25.7909 29 28 29H40.9412C43.1503 29 44.9412 27.2091 44.9412 25C44.9412 22.7909 43.1503 21 40.9412 21H28ZM55.0588 21C52.8497 21 51.0588 22.7909 51.0588 25C51.0588 27.2091 52.8497 29 55.0588 29H68C70.2091 29 72 27.2091 72 25C72 22.7909 70.2091 21 68 21H55.0588ZM28 44C25.7909 44 24 45.7909 24 48C24 50.2091 25.7909 52 28 52H40.9412C43.1503 52 44.9412 50.2091 44.9412 48C44.9412 45.7909 43.1503 44 40.9412 44H28ZM55.0588 44C52.8497 44 51.0588 45.7909 51.0588 48C51.0588 50.2091 52.8497 52 55.0588 52H68C70.2091 52 72 50.2091 72 48C72 45.7909 70.2091 44 68 44H55.0588ZM28 67C25.7909 67 24 68.7909 24 71C24 73.2091 25.7909 75 28 75H40.9412C43.1503 75 44.9412 73.2091 44.9412 71C44.9412 68.7909 43.1503 67 40.9412 67H28ZM55.0588 67C52.8497 67 51.0588 68.7909 51.0588 71C51.0588 73.2091 52.8497 75 55.0588 75H68C70.2091 75 72 73.2091 72 71C72 68.7909 70.2091 67 68 67H55.0588Z" fill="white"/>
</svg>
