<svg width="24" height="24" viewBox="0 0 24 24" fill="none" xmlns="http://www.w3.org/2000/svg">
<path d="M21.8202 8.01617H17.9304L14.5197 4.1183C14.4189 4.00817 14.2791 3.94159 14.1301 3.93265C13.981 3.9237 13.8343 3.97309 13.721 4.07037C13.664 4.11861 13.6173 4.17775 13.5836 4.24431C13.5499 4.31088 13.5298 4.38352 13.5246 4.45796C13.5194 4.5324 13.5291 4.60712 13.5533 4.67774C13.5774 4.74835 13.6154 4.81342 13.6651 4.86912L16.4207 8.01617H7.21122L10.1746 4.88509C10.2277 4.83303 10.2699 4.7709 10.2987 4.70232C10.3275 4.63374 10.3424 4.56011 10.3424 4.48572C10.3424 4.41134 10.3275 4.3377 10.2987 4.26912C10.2699 4.20055 10.2277 4.13841 10.1746 4.08635C10.0683 3.98099 9.92479 3.92188 9.77519 3.92188C9.62558 3.92188 9.48203 3.98099 9.37582 4.08635L5.66965 8.00019H2.18712C2.04729 8.01676 1.9184 8.08405 1.82487 8.18931C1.73135 8.29457 1.67969 8.43049 1.67969 8.57129C1.67969 8.7121 1.73135 8.84802 1.82487 8.95328C1.9184 9.05854 2.04729 9.12583 2.18712 9.14239H2.70631L5.52587 19.6618C5.55926 19.7821 5.63135 19.8879 5.73099 19.963C5.83063 20.0381 5.95225 20.0782 6.07701 20.0772H17.5949C17.7183 20.0774 17.8385 20.0379 17.9378 19.9646C18.037 19.8912 18.11 19.7879 18.146 19.6698L21.1573 9.15837H21.8123C21.9521 9.1418 22.081 9.07451 22.1745 8.96925C22.268 8.86399 22.3197 8.72808 22.3197 8.58727C22.3197 8.44646 22.268 8.31054 22.1745 8.20528C22.081 8.10002 21.9521 8.03273 21.8123 8.01617H21.8202ZM17.1795 18.943H6.51631L3.88845 9.15837H19.9911L17.1795 18.943Z" fill="black"/>
<path d="M9.78994 16.8271C9.63741 16.8271 9.49114 16.7665 9.38329 16.6587C9.27543 16.5508 9.21484 16.4046 9.21484 16.252V11.9548C9.23141 11.815 9.2987 11.6861 9.40396 11.5926C9.50922 11.499 9.64514 11.4474 9.78595 11.4474C9.92675 11.4474 10.0627 11.499 10.1679 11.5926C10.2732 11.6861 10.3405 11.815 10.357 11.9548V16.252C10.3581 16.3272 10.3442 16.4018 10.3162 16.4715C10.2882 16.5412 10.2466 16.6047 10.1938 16.6582C10.141 16.7117 10.0782 16.7542 10.0088 16.7832C9.93949 16.8122 9.86509 16.8271 9.78994 16.8271ZM12.2341 16.8271C12.0816 16.8271 11.9353 16.7665 11.8274 16.6587C11.7196 16.5508 11.659 16.4046 11.659 16.252V11.9548C11.6756 11.815 11.7429 11.6861 11.8481 11.5926C11.9534 11.499 12.0893 11.4474 12.2301 11.4474C12.3709 11.4474 12.5068 11.499 12.6121 11.5926C12.7173 11.6861 12.7846 11.815 12.8012 11.9548V16.252C12.8023 16.3272 12.7884 16.4018 12.7603 16.4715C12.7323 16.5412 12.6907 16.6047 12.6379 16.6582C12.5852 16.7117 12.5223 16.7542 12.453 16.7832C12.3836 16.8122 12.3092 16.8271 12.2341 16.8271ZM14.4786 16.8271C14.4034 16.8271 14.329 16.8122 14.2597 16.7832C14.1903 16.7542 14.1275 16.7117 14.0747 16.6582C14.0219 16.6047 13.9803 16.5412 13.9523 16.4715C13.9243 16.4018 13.9104 16.3272 13.9115 16.252V11.9548C13.9115 11.8044 13.9712 11.6602 14.0776 11.5538C14.1839 11.4474 14.3282 11.3877 14.4786 11.3877C14.629 11.3877 14.7732 11.4474 14.8796 11.5538C14.9859 11.6602 15.0457 11.8044 15.0457 11.9548V16.252C15.0467 16.3272 15.0328 16.4018 15.0048 16.4715C14.9768 16.5412 14.9352 16.6047 14.8824 16.6582C14.8297 16.7117 14.7668 16.7542 14.6974 16.7832C14.6281 16.8122 14.5537 16.8271 14.4786 16.8271Z" fill="black"/>
</svg>
