<svg width="24" height="24" viewBox="0 0 24 24" fill="none" xmlns="http://www.w3.org/2000/svg">
<path fill-rule="evenodd" clip-rule="evenodd" d="M11.3945 8H19.0909V9.38462H11.3945V8Z" fill="black"/>
<path fill-rule="evenodd" clip-rule="evenodd" d="M17 15H19V16H17V15Z" fill="black"/>
<path fill-rule="evenodd" clip-rule="evenodd" d="M5.35938 8.65947C5.35938 6.9413 6.81724 5.55664 8.60436 5.55664C10.3915 5.55664 11.8494 6.9413 11.8494 8.65947C11.8494 10.3777 10.3915 11.7623 8.60436 11.7623C6.81724 11.7623 5.35938 10.3777 5.35938 8.65947ZM8.60436 6.94126C7.60277 6.94126 6.79938 7.71535 6.79938 8.65947C6.79938 9.60359 7.60277 10.3777 8.60436 10.3777C9.60594 10.3777 10.4093 9.60359 10.4093 8.65947C10.4093 7.71535 9.60594 6.94126 8.60436 6.94126Z" fill="black"/>
<path fill-rule="evenodd" clip-rule="evenodd" d="M12.1241 15H4.42773V16.3846H12.1241V15Z" fill="black"/>
<path fill-rule="evenodd" clip-rule="evenodd" d="M6.1241 8H4.42773V9.38462H6.1241V8Z" fill="black"/>
<path fill-rule="evenodd" clip-rule="evenodd" d="M18.1599 15.5325C18.1599 13.8144 16.7021 12.4297 14.9149 12.4297C13.1278 12.4297 11.6699 13.8144 11.6699 15.5325C11.6699 17.2507 13.1278 18.6353 14.9149 18.6353C16.7021 18.6353 18.1599 17.2507 18.1599 15.5325ZM14.9149 13.8143C15.9165 13.8143 16.7199 14.5884 16.7199 15.5325C16.7199 16.4766 15.9165 17.2507 14.9149 17.2507C13.9133 17.2507 13.1099 16.4766 13.1099 15.5325C13.1099 14.5884 13.9133 13.8143 14.9149 13.8143Z" fill="black"/>
</svg>
