<svg width="24" height="24" viewBox="0 0 24 24" fill="none" xmlns="http://www.w3.org/2000/svg">
<path d="M12.0007 12.3273C11.3404 12.3282 10.6865 12.1984 10.0767 11.9453L2.38465 8.73935C1.97472 8.56878 1.62448 8.28064 1.37811 7.91127C1.13173 7.5419 1.00025 7.10785 1.00025 6.66385C1.00025 6.21985 1.13173 5.78579 1.37811 5.41643C1.62448 5.04706 1.97472 4.75892 2.38465 4.58835L10.0767 1.38235C11.3087 0.87255 12.6926 0.87255 13.9247 1.38235L21.6166 4.58835C22.0266 4.75892 22.3768 5.04706 22.6232 5.41643C22.8696 5.78579 23.0011 6.21985 23.0011 6.66385C23.0011 7.10785 22.8696 7.5419 22.6232 7.91127C22.3768 8.28064 22.0266 8.56878 21.6166 8.73935L13.9247 11.9453C13.3148 12.1984 12.6609 12.3282 12.0007 12.3273ZM10.8467 10.1004C11.2121 10.2535 11.6044 10.3324 12.0007 10.3324C12.3969 10.3324 12.7892 10.2535 13.1547 10.1004L20.8477 6.89435C20.8932 6.8757 20.9322 6.84391 20.9596 6.80304C20.987 6.76217 21.0017 6.71407 21.0017 6.66485C21.0017 6.61563 20.987 6.56752 20.9596 6.52666C20.9322 6.48579 20.8932 6.454 20.8477 6.43535L13.1547 3.22935C12.7892 3.07621 12.3969 2.99734 12.0007 2.99734C11.6044 2.99734 11.2121 3.07621 10.8467 3.22935L3.15365 6.43435C3.1081 6.453 3.06914 6.48479 3.04171 6.52566C3.01428 6.56652 2.99964 6.61463 2.99964 6.66385C2.99964 6.71307 3.01428 6.76117 3.04171 6.80204C3.06914 6.84291 3.1081 6.8747 3.15365 6.89335L10.8467 10.1004ZM13.9247 17.6133L21.6166 14.4083C22.0265 14.2376 22.3766 13.9493 22.6229 13.5799C22.8692 13.2104 23.0007 12.7764 23.0007 12.3323C23.0007 11.8883 22.8692 11.4543 22.6229 11.0848C22.3766 10.7154 22.0265 10.4271 21.6166 10.2563C21.3719 10.1542 21.0965 10.1536 20.8512 10.2545C20.6059 10.3553 20.4108 10.5496 20.3087 10.7943C20.2065 11.0391 20.2059 11.3145 20.3068 11.5598C20.4076 11.8051 20.6019 12.0002 20.8467 12.1024C20.8917 12.1216 20.9302 12.1536 20.9572 12.1945C20.9843 12.2354 20.9987 12.2833 20.9987 12.3323C20.9987 12.3814 20.9843 12.4293 20.9572 12.4702C20.9302 12.5111 20.8917 12.5431 20.8467 12.5624L13.1547 15.7674C12.7891 15.921 12.3966 16.0001 12.0002 16.0001C11.6037 16.0001 11.2112 15.921 10.8457 15.7674L3.15365 12.5604C3.10848 12.5413 3.06993 12.5094 3.04282 12.4686C3.01571 12.4278 3.00125 12.3799 3.00125 12.3308C3.00125 12.2818 3.01571 12.2339 3.04282 12.1931C3.06993 12.1523 3.10848 12.1204 3.15365 12.1013C3.39845 11.9992 3.59265 11.8041 3.69355 11.5588C3.79444 11.3135 3.79376 11.0381 3.69165 10.7934C3.58954 10.5486 3.39437 10.3543 3.14907 10.2535C2.90378 10.1526 2.62844 10.1532 2.38365 10.2554C1.97342 10.4258 1.62287 10.7139 1.37626 11.0834C1.12966 11.4529 0.998047 11.8871 0.998047 12.3314C0.998047 12.7756 1.12966 13.2098 1.37626 13.5793C1.62287 13.9488 1.97342 14.2369 2.38365 14.4073L10.0767 17.6133C10.6857 17.869 11.3396 18.0007 12.0002 18.0007C12.6607 18.0007 13.3156 17.869 13.9247 17.6133ZM13.9247 22.6133L21.6166 19.4083C22.0265 19.2376 22.3766 18.9493 22.6229 18.5799C22.8692 18.2104 23.0007 17.7764 23.0007 17.3323C23.0007 16.8883 22.8692 16.4543 22.6229 16.0848C22.3766 15.7154 22.0265 15.4271 21.6166 15.2563C21.3719 15.1542 21.0965 15.1536 20.8512 15.2545C20.6059 15.3553 20.4108 15.5496 20.3087 15.7943C20.2065 16.0391 20.2059 16.3145 20.3068 16.5598C20.4076 16.8051 20.6019 17.0002 20.8467 17.1023C20.8917 17.1216 20.9302 17.1536 20.9572 17.1945C20.9843 17.2354 20.9987 17.2833 20.9987 17.3323C20.9987 17.3814 20.9843 17.4293 20.9572 17.4702C20.9302 17.5111 20.8917 17.5431 20.8467 17.5623L13.1547 20.7673C12.7891 20.9209 12.3966 21 12.0002 21C11.6037 21 11.2112 20.9209 10.8457 20.7673L3.15365 17.5603C3.10818 17.5415 3.06932 17.5096 3.04198 17.4686C3.01464 17.4277 3.00005 17.3796 3.00005 17.3303C3.00005 17.2811 3.01464 17.233 3.04198 17.1921C3.06932 17.1511 3.10818 17.1192 3.15365 17.1003C3.39845 16.9982 3.59265 16.8031 3.69355 16.5578C3.79444 16.3125 3.79376 16.0371 3.69165 15.7923C3.58954 15.5476 3.39437 15.3533 3.14907 15.2525C2.90378 15.1516 2.62844 15.1522 2.38365 15.2543C1.97342 15.4248 1.62287 15.7129 1.37626 16.0824C1.12966 16.4519 0.998047 16.8861 0.998047 17.3303C0.998047 17.7746 1.12966 18.2088 1.37626 18.5783C1.62287 18.9478 1.97342 19.2359 2.38365 19.4063L10.0767 22.6123C10.6857 22.868 11.3396 22.9997 12.0002 22.9997C12.6607 22.9997 13.3146 22.868 13.9237 22.6123L13.9247 22.6133Z" fill="white"/>
</svg>
