<svg width="24" height="24" viewBox="0 0 24 24" fill="none" xmlns="http://www.w3.org/2000/svg">
<path d="M19.7549 1.87012H4.24336C2.93212 1.87012 1.86914 2.9331 1.86914 4.24434V16.9069C1.86914 18.2181 2.93212 19.2811 4.24336 19.2811H8.88481C9.01509 19.2811 9.14337 19.3132 9.25824 19.3747C9.37311 19.4362 9.47103 19.5251 9.5433 19.6335L10.7688 21.4716C10.9038 21.6742 11.0868 21.8403 11.3014 21.9551C11.516 22.07 11.7557 22.1301 11.9992 22.1301C12.2426 22.1301 12.4823 22.07 12.6969 21.9551C12.9115 21.8403 13.0945 21.6742 13.2296 21.4716L14.455 19.6335C14.5273 19.5251 14.6252 19.4362 14.7401 19.3747C14.8549 19.3132 14.9832 19.2811 15.1135 19.2811H19.7549C21.0662 19.2811 22.1292 18.2181 22.1292 16.9069V4.24434C22.1292 2.9331 21.0662 1.87012 19.7549 1.87012ZM6.14274 12.1584C5.26859 12.1584 4.55992 11.4497 4.55992 10.5756C4.55992 9.70145 5.26859 8.99278 6.14274 8.99278C7.01689 8.99278 7.72555 9.70145 7.72555 10.5756C7.72555 11.4497 7.01689 12.1584 6.14274 12.1584ZM11.9992 12.1584C11.125 12.1584 10.4163 11.4497 10.4163 10.5756C10.4163 9.70145 11.125 8.99278 11.9992 8.99278C12.8733 8.99278 13.582 9.70145 13.582 10.5756C13.582 11.4497 12.8733 12.1584 11.9992 12.1584ZM17.8556 12.1584C16.9814 12.1584 16.2727 11.4497 16.2727 10.5756C16.2727 9.70145 16.9814 8.99278 17.8556 8.99278C18.7297 8.99278 19.4384 9.70145 19.4384 10.5756C19.4384 11.4497 18.7297 12.1584 17.8556 12.1584Z" fill="white"/>
</svg>
