<svg width="24" height="24" viewBox="0 0 24 24" fill="none" xmlns="http://www.w3.org/2000/svg">
<path fill-rule="evenodd" clip-rule="evenodd" d="M9.5812 2.58401C10.9629 1.59089 12.8216 1.58058 14.2142 2.5583L19.9842 6.60929C21.0509 7.35816 21.6858 8.57973 21.6858 9.88301V18.1673C21.6858 20.3764 19.8949 22.1673 17.6858 22.1673H6.31445C4.10531 22.1673 2.31445 20.3765 2.31445 18.1673V9.85815C2.31445 8.57054 2.9343 7.36165 3.97985 6.61013L9.5812 2.58401ZM9.78576 13.839C9.78576 15.0711 10.7857 16.07 12.0179 16.07C13.2501 16.07 14.2501 15.0711 14.2501 13.839C14.2501 12.6068 13.2501 11.6079 12.0179 11.6079C10.7857 11.6079 9.78576 12.6068 9.78576 13.839Z" fill="white"/>
</svg>
