<svg width="25" height="25" viewBox="0 0 25 25" fill="none" xmlns="http://www.w3.org/2000/svg">
<path d="M17.8238 17.8578C18.2153 17.4689 18.843 17.4689 19.2345 17.8578L21.8224 19.9467H21.8673C22.3909 20.4759 22.3909 21.3339 21.8673 21.8631C21.3438 22.3923 20.4949 22.3923 19.9714 21.8631L17.8238 19.4018L17.7423 19.3098C17.5905 19.1177 17.5066 18.8781 17.5066 18.6298C17.5066 18.3401 17.6207 18.0623 17.8238 17.8578ZM10.6891 2C12.9937 2 15.2038 2.92531 16.8333 4.57237C18.4628 6.21944 19.3783 8.45334 19.3783 10.7826C19.3783 15.6332 15.488 19.5653 10.6891 19.5653C5.89026 19.5653 2 15.6332 2 10.7826C2 5.93212 5.89026 2 10.6891 2Z" fill="white"/>
</svg>
